<?xml version="1.0" standalone="no"?>
<!DOCTYPE svg PUBLIC "-//W3C//DTD SVG 20010904//EN"
 "http://www.w3.org/TR/2001/REC-SVG-20010904/DTD/svg10.dtd">
<svg version="1.0" xmlns="http://www.w3.org/2000/svg"
 width="1024.000000pt" height="1024.000000pt" viewBox="0 0 1024.000000 1024.000000"
 preserveAspectRatio="xMidYMid meet">
<metadata>
Created by potrace 1.16, written by Peter Selinger 2001-2019
</metadata>
<g transform="translate(0.000000,1024.000000) scale(0.100000,-0.100000)"
fill="#000000" stroke="none">
<path d="M3978 9305 c-1 -63 -2 -123 -2 -132 -1 -16 10 -18 99 -18 89 0 100 2
99 18 0 9 -1 69 -2 132 l-2 115 -95 0 -95 0 -2 -115z"/>
<path d="M3978 8863 l-3 -68 -112 -3 -113 -3 0 -63 c0 -35 -3 -78 -6 -95 l-6
-31 -114 0 -113 0 -3 -107 -3 -108 -122 -3 -123 -3 0 -104 0 -104 123 -3 122
-3 3 -352 2 -353 115 0 115 0 0 -125 0 -125 110 0 110 0 0 120 0 120 105 0
105 0 0 -125 0 -125 95 0 95 0 0 120 0 119 -90 3 -91 3 -5 223 -6 222 211 0
211 0 0 145 0 145 -25 0 c-24 0 -25 2 -25 65 0 36 -4 65 -8 65 -4 0 -14 17
-21 38 -27 78 -44 102 -74 102 -21 0 -41 12 -71 43 -61 62 -86 77 -133 77
l-43 0 0 114 c0 66 -4 117 -10 121 -5 3 -10 33 -10 66 l0 59 -95 0 -94 0 -3
-67z m-8 -1088 l0 -115 -115 0 -115 0 0 115 0 115 115 0 115 0 0 -115z"/>
<path d="M2800 7210 l0 -240 110 0 110 0 0 -135 0 -135 115 0 115 0 0 -940 0
-940 -130 0 -130 0 0 155 c0 97 -4 155 -10 155 -6 0 -10 32 -10 75 l0 75 -85
0 -85 0 -2 -232 -3 -233 -115 0 c-63 1 -123 4 -133 8 -16 6 -17 24 -16 222 1
119 -1 218 -4 222 -4 3 -37 8 -75 11 -52 3 -78 0 -105 -13 -33 -16 -37 -21
-38 -59 -3 -89 -5 -531 -7 -1457 l-2 -967 -100 -7 -100 -7 0 -139 0 -139 -95
0 -95 0 0 -110 0 -110 -220 0 -220 0 0 -120 0 -120 -105 0 -105 0 0 -105 0
-105 -120 0 -120 0 0 -119 c0 -83 -4 -122 -12 -127 -7 -4 -61 -10 -120 -12
l-108 -5 0 -98 0 -99 -95 0 -95 0 0 -94 0 -94 313 -6 c171 -4 384 -5 472 -2
88 2 283 5 433 5 l272 1 0 100 0 100 355 0 355 0 0 -100 0 -100 1318 -2 1317
-3 3 -107 3 -108 779 0 780 0 0 94 c0 52 3 101 6 110 5 14 36 16 240 16 l233
0 3 -112 3 -113 253 -3 252 -2 0 -130 0 -130 425 0 425 0 0 135 0 135 485 0
485 0 0 110 0 110 110 0 110 0 0 95 0 95 -110 0 -110 0 0 100 0 100 -80 0
c-57 0 -88 5 -105 16 -24 16 -25 20 -25 130 l0 114 -105 0 -105 0 0 115 0 114
-97 3 -98 3 -3 108 -3 107 -179 0 -180 0 0 115 0 115 -125 0 -125 0 0 135 0
135 -110 0 -110 0 0 -135 0 -135 -485 0 -485 0 0 129 c0 72 4 132 8 135 5 3
75 6 155 7 l147 1 0 114 0 114 -149 0 c-127 0 -150 2 -155 16 -10 27 -7 584 4
584 5 0 11 52 12 123 l3 122 138 3 c105 2 137 0 139 -10 1 -7 2 -89 3 -183 1
-93 2 -236 3 -317 l2 -148 85 0 85 0 0 85 0 85 59 0 59 0 4 238 c2 130 3 238
2 239 0 2 -66 6 -147 9 l-147 7 0 179 0 178 28 2 c15 0 36 0 47 -1 11 -1 66 1
123 4 l102 7 0 97 0 98 166 7 c91 3 169 4 175 1 5 -4 9 -51 9 -106 l0 -99 115
0 115 0 0 175 0 175 -110 0 -110 0 0 130 0 130 -80 0 -80 0 0 109 0 109 -97
-1 -98 -2 -3 -112 -3 -113 -154 0 -155 0 0 225 0 225 -100 0 -100 0 -2 -227
-3 -228 -130 0 -130 0 -3 228 -2 227 -105 0 -105 0 0 -615 0 -615 -120 0 -120
0 0 -95 0 -95 -145 0 -145 0 0 95 0 95 -135 0 -135 0 0 -95 0 -95 -290 0 -290
0 0 103 0 102 -95 -3 -94 -3 -3 -102 c-2 -56 -6 -101 -10 -99 -5 1 -84 2 -178
2 l-170 0 0 705 0 705 -105 0 -105 0 0 185 c0 113 -4 185 -10 185 -5 0 -7 6
-5 13 4 9 -21 11 -112 7 l-118 -5 -3 -299 c-2 -233 1 -301 10 -308 7 -4 61 -8
121 -8 l107 0 0 -1038 c0 -571 3 -1141 7 -1265 l6 -227 -341 0 -342 0 0 135 0
135 -220 0 -220 0 0 -135 0 -135 -120 0 -120 0 0 135 0 135 83 1 c45 0 98 1
117 2 l35 2 0 110 0 110 -117 3 -118 3 0 424 0 424 116 3 116 3 -2 1158 -1
1157 116 0 115 0 0 145 0 145 445 0 445 0 0 -350 0 -350 110 0 110 0 -2 473
-3 472 -25 2 c-14 0 -67 1 -117 2 l-93 1 0 240 0 240 120 0 120 0 0 -93 c0
-124 6 -130 122 -126 l83 3 5 106 5 105 88 3 87 3 0 124 0 125 -237 2 c-131 0
-266 2 -300 4 l-63 2 0 -118 0 -119 -127 -3 -128 -3 -3 -247 -2 -248 -120 0
-120 0 0 125 0 125 -90 0 -90 0 0 -125 0 -125 -110 0 -110 0 0 130 0 130 -110
0 -109 0 -3 116 -3 116 -117 -1 -118 -2 0 125 0 126 -350 0 -350 0 0 -240z
m694 -10 c3 -3 6 -55 7 -115 l2 -110 -112 -3 -111 -3 0 122 0 121 104 -4 c58
-2 107 -6 110 -8z m246 -360 l0 -130 -120 0 -120 0 0 130 0 130 120 0 120 0 0
-130z m-722 -2537 l-3 -128 -125 -3 c-69 -2 -176 0 -237 3 l-113 7 0 124 0
124 240 0 241 0 -3 -127z m4462 2 l0 -115 -135 0 -135 0 0 115 0 115 135 0
135 0 0 -115z m-4680 -580 l0 -125 105 0 105 0 0 -295 0 -295 -241 0 -241 0 6
31 c3 17 6 92 6 165 l0 134 115 0 115 0 0 130 0 129 -112 3 -113 3 -3 123 -3
122 131 0 130 0 0 -125z m2480 -212 c0 -49 3 -139 7 -200 l6 -113 67 0 67 0 6
113 c4 61 7 151 7 200 l0 87 78 0 78 0 -4 -120 -3 -120 90 0 91 0 0 120 0 120
100 0 100 0 0 -125 0 -126 103 3 102 3 3 123 3 122 134 0 135 0 0 -125 0 -125
155 0 155 0 0 -170 0 -170 -158 0 -157 0 -1 -27 c0 -16 -1 -70 -2 -120 l-2
-93 -580 0 -580 0 0 115 0 114 -102 3 -103 3 -3 298 -2 297 105 0 105 0 0 -87z
m2065 -598 l0 -140 -167 -3 -168 -2 0 145 0 145 168 -2 167 -3 0 -140z"/>
<path d="M3980 5945 c0 -207 1 -225 18 -226 9 0 52 -2 95 -5 l77 -5 1 68 c1
37 3 141 5 231 l4 162 -100 0 -100 0 0 -225z"/>
<path d="M8330 5960 l0 -200 135 0 135 0 0 90 0 90 -60 0 -60 0 0 110 0 110
-75 0 -75 0 0 -200z"/>
<path d="M4841 5684 c0 -11 3 -14 6 -6 3 7 2 16 -1 19 -3 4 -6 -2 -5 -13z"/>
<path d="M3980 4998 c0 -145 -3 -300 -7 -345 l-6 -83 107 0 106 0 0 339 c0
300 -2 340 -16 345 -9 3 -54 6 -100 6 l-84 0 0 -262z"/>
<path d="M8330 5146 l0 -84 52 -4 c48 -3 54 -1 89 34 21 21 45 38 53 38 24 0
29 19 13 44 -19 28 -99 56 -161 56 l-46 0 0 -84z"/>
<path d="M4530 4361 c0 -6 4 -13 10 -16 6 -3 7 1 4 9 -7 18 -14 21 -14 7z"/>
<path d="M4450 4340 c0 -6 7 -10 15 -10 8 0 15 2 15 4 0 2 -7 6 -15 10 -8 3
-15 1 -15 -4z"/>
<path d="M4486 4298 c3 -4 9 -8 15 -8 5 0 9 4 9 8 0 5 -7 9 -15 9 -8 0 -12 -4
-9 -9z"/>
<path d="M4430 4276 c0 -7 8 -16 18 -18 12 -4 18 1 18 13 0 12 -7 19 -18 19
-10 0 -18 -6 -18 -14z"/>
<path d="M4510 4250 c0 -6 7 -10 15 -10 8 0 15 2 15 4 0 2 -7 6 -15 10 -8 3
-15 1 -15 -4z"/>
<path d="M4465 4220 c-3 -5 -1 -10 4 -10 6 0 11 5 11 10 0 6 -2 10 -4 10 -3 0
-8 -4 -11 -10z"/>
<path d="M4455 4190 c3 -5 14 -10 23 -10 15 0 15 2 2 10 -20 13 -33 13 -25 0z"/>
<path d="M3739 3518 c0 -40 -2 -95 -2 -123 l-2 -50 115 0 115 0 3 123 3 122
-116 0 -115 0 -1 -72z"/>
<path d="M9760 80 l0 -80 80 0 80 0 0 80 0 80 -80 0 -80 0 0 -80z"/>
</g>
</svg>
